<mxfile host="app.diagrams.net" modified="2024-01-02T19:59:28.351Z" agent="Mozilla/5.0 (Macintosh; Intel Mac OS X 10_15_7) AppleWebKit/537.36 (KHTML, like Gecko) Chrome/119.0.0.0 Safari/537.36" etag="DPTOn297bilxuib0l-eA" version="22.1.16" type="github">
  <diagram name="Page-1" id="FTOx4hH3BZ9oGvNg_YYN">
    <mxGraphModel dx="1818" dy="981" grid="1" gridSize="10" guides="1" tooltips="1" connect="1" arrows="1" fold="1" page="1" pageScale="1" pageWidth="850" pageHeight="1100" math="0" shadow="0">
      <root>
        <mxCell id="0" />
        <mxCell id="1" parent="0" />
        <mxCell id="KGiouqKBvsn4AWFSG_ii-1" style="edgeStyle=orthogonalEdgeStyle;rounded=0;orthogonalLoop=1;jettySize=auto;html=1;" edge="1" parent="1" source="KGiouqKBvsn4AWFSG_ii-4">
          <mxGeometry relative="1" as="geometry">
            <mxPoint x="80" y="180" as="targetPoint" />
          </mxGeometry>
        </mxCell>
        <mxCell id="KGiouqKBvsn4AWFSG_ii-3" style="edgeStyle=orthogonalEdgeStyle;rounded=0;orthogonalLoop=1;jettySize=auto;html=1;" edge="1" parent="1" source="KGiouqKBvsn4AWFSG_ii-4">
          <mxGeometry relative="1" as="geometry">
            <mxPoint x="710" y="190" as="targetPoint" />
            <Array as="points">
              <mxPoint x="275" y="140" />
              <mxPoint x="710" y="140" />
            </Array>
          </mxGeometry>
        </mxCell>
        <mxCell id="KGiouqKBvsn4AWFSG_ii-16" style="edgeStyle=orthogonalEdgeStyle;rounded=0;orthogonalLoop=1;jettySize=auto;html=1;" edge="1" parent="1" source="KGiouqKBvsn4AWFSG_ii-4" target="KGiouqKBvsn4AWFSG_ii-17">
          <mxGeometry relative="1" as="geometry">
            <mxPoint x="650" y="65" as="targetPoint" />
          </mxGeometry>
        </mxCell>
        <mxCell id="KGiouqKBvsn4AWFSG_ii-18" style="edgeStyle=orthogonalEdgeStyle;rounded=0;orthogonalLoop=1;jettySize=auto;html=1;" edge="1" parent="1" source="KGiouqKBvsn4AWFSG_ii-4">
          <mxGeometry relative="1" as="geometry">
            <mxPoint x="420" y="180" as="targetPoint" />
          </mxGeometry>
        </mxCell>
        <mxCell id="KGiouqKBvsn4AWFSG_ii-4" value="&lt;div&gt;&lt;span style=&quot;background-color: initial;&quot;&gt;Mysterious Psuedodragon:&lt;/span&gt;&lt;/div&gt;&lt;div&gt;&lt;span style=&quot;background-color: initial;&quot;&gt;Hello there, child. You are a purple dragon, no? I have a message for your kind from the North.&lt;/span&gt;&lt;br&gt;&lt;/div&gt;" style="rounded=0;whiteSpace=wrap;html=1;" vertex="1" parent="1">
          <mxGeometry x="50" y="30" width="450" height="70" as="geometry" />
        </mxCell>
        <mxCell id="KGiouqKBvsn4AWFSG_ii-20" style="edgeStyle=orthogonalEdgeStyle;rounded=0;orthogonalLoop=1;jettySize=auto;html=1;" edge="1" parent="1" source="KGiouqKBvsn4AWFSG_ii-6">
          <mxGeometry relative="1" as="geometry">
            <mxPoint x="95" y="320" as="targetPoint" />
            <Array as="points">
              <mxPoint x="110" y="260" />
              <mxPoint x="110" y="260" />
            </Array>
          </mxGeometry>
        </mxCell>
        <mxCell id="KGiouqKBvsn4AWFSG_ii-6" value="My kind..." style="rounded=1;whiteSpace=wrap;html=1;" vertex="1" parent="1">
          <mxGeometry x="50" y="200" width="150" height="60" as="geometry" />
        </mxCell>
        <mxCell id="KGiouqKBvsn4AWFSG_ii-22" style="edgeStyle=orthogonalEdgeStyle;rounded=0;orthogonalLoop=1;jettySize=auto;html=1;" edge="1" parent="1" source="KGiouqKBvsn4AWFSG_ii-8">
          <mxGeometry relative="1" as="geometry">
            <mxPoint x="425" y="320" as="targetPoint" />
          </mxGeometry>
        </mxCell>
        <mxCell id="KGiouqKBvsn4AWFSG_ii-8" value="The North?" style="rounded=1;whiteSpace=wrap;html=1;" vertex="1" parent="1">
          <mxGeometry x="350" y="200" width="150" height="60" as="geometry" />
        </mxCell>
        <mxCell id="KGiouqKBvsn4AWFSG_ii-10" value="Who... what are you?" style="rounded=1;whiteSpace=wrap;html=1;" vertex="1" parent="1">
          <mxGeometry x="630" y="200" width="150" height="60" as="geometry" />
        </mxCell>
        <mxCell id="KGiouqKBvsn4AWFSG_ii-17" value="Leave me alone." style="rounded=1;whiteSpace=wrap;html=1;fillColor=#f8cecc;strokeColor=#b85450;" vertex="1" parent="1">
          <mxGeometry x="590" y="35" width="120" height="60" as="geometry" />
        </mxCell>
        <mxCell id="KGiouqKBvsn4AWFSG_ii-24" style="edgeStyle=orthogonalEdgeStyle;rounded=0;orthogonalLoop=1;jettySize=auto;html=1;" edge="1" parent="1" source="KGiouqKBvsn4AWFSG_ii-21" target="KGiouqKBvsn4AWFSG_ii-25">
          <mxGeometry relative="1" as="geometry">
            <mxPoint x="300" y="390" as="targetPoint" />
          </mxGeometry>
        </mxCell>
        <mxCell id="KGiouqKBvsn4AWFSG_ii-21" value="The purple dragons... have been attacked? Oh dear, this is worrying news. If you are the last of the purple dragons, then I suppose the message is for you..." style="rounded=0;whiteSpace=wrap;html=1;" vertex="1" parent="1">
          <mxGeometry x="50" y="330" width="200" height="120" as="geometry" />
        </mxCell>
        <mxCell id="KGiouqKBvsn4AWFSG_ii-25" value="&amp;gt; Well here&#39;s the message, it&#39;s from the White Dragon elder in the Tundra to the North. &lt;br&gt;&amp;gt; He says humans from the empire have laid siege on his lair, and he suspects&amp;nbsp;" style="whiteSpace=wrap;html=1;aspect=fixed;" vertex="1" parent="1">
          <mxGeometry x="350" y="330" width="200" height="200" as="geometry" />
        </mxCell>
      </root>
    </mxGraphModel>
  </diagram>
</mxfile>
